<svg width="50" height="50" viewBox="0 0 50 50" fill="none" xmlns="http://www.w3.org/2000/svg">
<g clip-path="url(#clip0)">
<path d="M25 50C38.8071 50 50 38.8071 50 25C50 11.1929 38.8071 0 25 0C11.1929 0 0 11.1929 0 25C0 38.8071 11.1929 50 25 50Z" fill="#8C50D7"/>
<path d="M30.0926 44.9074C16.2855 44.9074 5.09258 33.7145 5.09258 19.9074C5.09258 14.3026 6.93721 9.12891 10.0521 4.95947C3.95039 9.51807 0 16.7976 0 25C0 38.807 11.193 50 25 50C33.2024 50 40.4819 46.0496 45.0405 39.948C40.8711 43.0629 35.6974 44.9074 30.0926 44.9074Z" fill="#733CB9"/>
<path d="M28.7082 7.76057C28.5925 7.76057 28.4741 7.74924 28.3556 7.72668C27.258 7.51467 26.1294 7.40744 25 7.40744C23.9774 7.40744 23.1482 6.57825 23.1482 5.55559C23.1482 4.53293 23.9774 3.70374 25 3.70374C26.3636 3.70374 27.729 3.83352 29.0574 4.08987C30.062 4.28381 30.7185 5.25491 30.5249 6.25911C30.354 7.14465 29.5782 7.76057 28.7082 7.76057Z" fill="#AA6EFF"/>
<path d="M44.2446 24.0746C43.3386 24.0746 42.5465 23.4082 42.4144 22.4845C41.6649 17.2454 38.6222 12.6656 34.0668 9.91979C33.1906 9.39166 32.9085 8.25367 33.4366 7.37799C33.9639 6.50094 35.1014 6.2192 35.9784 6.74781C41.4905 10.0704 45.1726 15.6151 46.0804 21.9601C46.226 22.9724 45.5225 23.9106 44.5098 24.0556C44.4211 24.0682 44.3324 24.0746 44.2446 24.0746Z" fill="#AA6EFF"/>
<path d="M37.037 24.3055C37.6763 24.3055 38.1944 23.7873 38.1944 23.1481C38.1944 22.5088 37.6763 21.9906 37.037 21.9906H36.0413L36.32 20.5973C36.4457 19.9706 36.0388 19.3607 35.4121 19.2355C34.7791 19.1093 34.176 19.5162 34.0503 20.1434L33.6809 21.9907H31.4116L31.6903 20.5974C31.816 19.9707 31.4091 19.3608 30.7824 19.2356C30.1504 19.1094 29.5463 19.5163 29.4206 20.1435L29.0512 21.9908H27.7776C27.1384 21.9908 26.6202 22.509 26.6202 23.1483C26.6202 23.7875 27.1384 24.3057 27.7776 24.3057H28.5882L28.3104 25.6946H26.8518C26.2125 25.6946 25.6943 26.2127 25.6943 26.852C25.6943 27.4912 26.2125 28.0094 26.8518 28.0094H27.8475L27.5687 29.4028C27.4431 30.0294 27.85 30.6394 28.4767 30.7646C28.5535 30.78 28.6294 30.7876 28.7046 30.7876C29.2453 30.7876 29.7282 30.407 29.8385 29.8568L30.2079 28.0094H32.4772L32.1984 29.4028C32.0728 30.0294 32.4797 30.6394 33.1063 30.7646C33.1832 30.78 33.2591 30.7876 33.3343 30.7876C33.875 30.7876 34.3579 30.407 34.4682 29.8568L34.8376 28.0094H36.1111C36.7504 28.0094 37.2686 27.4912 37.2686 26.852C37.2686 26.2127 36.7504 25.6946 36.1111 25.6946H35.3006L35.5783 24.3057H37.037V24.3055ZM32.9401 25.6944H30.6709L30.9486 24.3055H33.2179L32.9401 25.6944Z" fill="white"/>
<path d="M19.4445 18.75C20.5359 18.75 21.5876 19.0814 22.4854 19.708C23.0116 20.0751 23.7322 19.9459 24.0977 19.4213C24.4629 18.8974 24.3346 18.1757 23.8109 17.81C22.5216 16.9104 21.0124 16.4352 19.4445 16.4352C15.2326 16.4352 11.8057 19.8621 11.8057 24.0741V25.9259C11.8057 30.1378 15.2326 33.5648 19.4445 33.5648C21.0125 33.5648 22.5216 33.0897 23.811 32.1899C24.3346 31.8242 24.463 31.1025 24.0978 30.5785C23.7315 30.055 23.0117 29.9252 22.4854 30.2918C21.5875 30.9186 20.5359 31.2499 19.4444 31.2499C16.5084 31.2499 14.1203 28.8614 14.1203 25.9258V24.074C14.1205 21.1386 16.5086 18.75 19.4445 18.75Z" fill="white"/>
</g>
<defs>
<clipPath id="clip0">
<rect width="50" height="50" fill="white"/>
</clipPath>
</defs>
</svg>
